<svg width="34" height="34" viewBox="0 0 34 34" fill="none" xmlns="http://www.w3.org/2000/svg">
<path d="M16.8012 3.4124C21.1329 3.4124 21.7236 3.4124 23.4956 3.4124C25.0708 3.4124 25.8584 3.80619 26.449 4.00308C27.2366 4.39687 27.8273 4.59376 28.418 5.18444C29.0087 5.77513 29.4025 6.36581 29.5993 7.15339C29.7962 7.74407 29.9931 8.53164 30.19 10.1068C30.19 11.8788 30.19 12.2726 30.19 16.8012C30.19 21.3298 30.19 21.7236 30.19 23.4956C30.19 25.0708 29.7962 25.8583 29.5993 26.449C29.2056 27.2366 29.0087 27.8273 28.418 28.418C27.8273 29.0086 27.2366 29.4024 26.449 29.5993C25.8584 29.7962 25.0708 29.9931 23.4956 30.19C21.7236 30.19 21.3298 30.19 16.8012 30.19C12.2727 30.19 11.8789 30.19 10.1068 30.19C8.53168 30.19 7.7441 29.7962 7.15342 29.5993C6.36584 29.2055 5.77516 29.0086 5.18448 28.418C4.59379 27.8273 4.2 27.2366 4.00311 26.449C3.80622 25.8583 3.60932 25.0708 3.41243 23.4956C3.41243 21.7236 3.41243 21.3298 3.41243 16.8012C3.41243 12.2726 3.41243 11.8788 3.41243 10.1068C3.41243 8.53164 3.80622 7.74407 4.00311 7.15339C4.3969 6.36581 4.59379 5.77513 5.18448 5.18444C5.77516 4.59376 6.36584 4.19997 7.15342 4.00308C7.7441 3.80619 8.53168 3.60929 10.1068 3.4124C11.8789 3.4124 12.4696 3.4124 16.8012 3.4124ZM16.8012 0.458984C12.2727 0.458984 11.8789 0.458984 10.1068 0.458984C8.33478 0.458984 7.15342 0.852774 6.16895 1.24656C5.18448 1.64035 4.2 2.23103 3.21553 3.2155C2.23106 4.19997 1.83728 4.98755 1.24659 6.16892C0.852804 7.15339 0.655909 8.33475 0.459015 10.1068C0.459015 11.8788 0.459015 12.4695 0.459015 16.8012C0.459015 21.3298 0.459015 21.7236 0.459015 23.4956C0.459015 25.2676 0.852804 26.449 1.24659 27.4335C1.64038 28.418 2.23106 29.4024 3.21553 30.3869C4.2 31.3714 4.98758 31.7652 6.16895 32.3558C7.15342 32.7496 8.33478 32.9465 10.1068 33.1434C11.8789 33.1434 12.4696 33.1434 16.8012 33.1434C21.1329 33.1434 21.7236 33.1434 23.4956 33.1434C25.2677 33.1434 26.449 32.7496 27.4335 32.3558C28.418 31.962 29.4025 31.3714 30.3869 30.3869C31.3714 29.4024 31.7652 28.6148 32.3559 27.4335C32.7497 26.449 32.9465 25.2676 33.1434 23.4956C33.1434 21.7236 33.1434 21.1329 33.1434 16.8012C33.1434 12.4695 33.1434 11.8788 33.1434 10.1068C33.1434 8.33475 32.7497 7.15339 32.3559 6.16892C31.9621 5.18444 31.3714 4.19997 30.3869 3.2155C29.4025 2.23103 28.6149 1.83724 27.4335 1.24656C26.449 0.852774 25.2677 0.655879 23.4956 0.458984C21.7236 0.458984 21.3298 0.458984 16.8012 0.458984Z" fill="#F6F6F6"/>
<path d="M16.8012 8.33475C12.0758 8.33475 8.33478 12.0757 8.33478 16.8012C8.33478 21.5267 12.0758 25.2676 16.8012 25.2676C21.5267 25.2676 25.2677 21.5267 25.2677 16.8012C25.2677 12.0757 21.5267 8.33475 16.8012 8.33475ZM16.8012 22.3142C13.8478 22.3142 11.2882 19.9515 11.2882 16.8012C11.2882 13.8478 13.6509 11.2882 16.8012 11.2882C19.7546 11.2882 22.3143 13.6509 22.3143 16.8012C22.3143 19.7546 19.7546 22.3142 16.8012 22.3142Z" fill="#F6F6F6"/>
<path d="M25.4646 10.1068C26.552 10.1068 27.4335 9.22527 27.4335 8.13786C27.4335 7.05044 26.552 6.16892 25.4646 6.16892C24.3772 6.16892 23.4956 7.05044 23.4956 8.13786C23.4956 9.22527 24.3772 10.1068 25.4646 10.1068Z" fill="#F6F6F6"/>
</svg>
