<svg width="111" height="40" viewBox="0 0 111 40" fill="none" xmlns="http://www.w3.org/2000/svg">
<g id="Group 1596">
<rect id="Rectangle 40083" width="111" height="40" rx="20" fill="#1C1C1C"/>
<g id="Vector">
<path d="M21.5146 20.6327H25.7507C25.7507 20.6327 25.7507 23.5445 29.2023 23.5445C31.5557 23.5445 32.1833 22.4121 32.1833 21.4415C32.1833 17.8826 21.8284 20.6326 21.8284 14.162C21.8284 11.2501 24.4956 8.82363 28.8885 8.82363C35.1642 8.82363 36.1056 12.5443 36.1056 14.162H31.8695C31.8695 14.162 31.8695 11.8972 28.8885 11.8972C27.1627 11.8972 26.2214 12.8031 26.2214 13.8384C26.2214 16.7502 36.5763 14.6473 36.5763 20.9562C36.5763 24.1915 33.9091 26.618 29.2023 26.618C22.7697 26.618 21.5146 22.5739 21.5146 20.6327Z" fill="white"/>
<path d="M37.9736 31.9564V9.30893H42.2097V11.5737H42.3666C42.3666 11.5737 43.7786 8.82363 47.3871 8.82363C52.0939 8.82363 54.4473 13.0296 54.4473 17.7208C54.4473 22.4121 52.0939 26.618 47.3871 26.618C43.9355 26.618 42.5234 24.3533 42.5234 24.3533H42.3666V31.9564H37.9736ZM42.2097 17.7208C42.2097 20.7621 43.4648 23.2209 46.132 23.2209C48.7991 23.2209 50.0543 20.7621 50.0543 17.7208C50.0543 14.6796 48.7991 12.2207 46.132 12.2207C43.4648 12.2207 42.2097 14.6796 42.2097 17.7208Z" fill="white"/>
<path d="M60.2621 9.30893V26.1327H55.8691V9.30893H60.2621ZM55.5553 5.58828C55.5553 4.16473 56.6849 3 58.0656 3C59.4462 3 60.5758 4.16473 60.5758 5.58828C60.5758 7.01183 59.4462 8.17656 58.0656 8.17656C56.6849 8.17656 55.5553 7.01183 55.5553 5.58828Z" fill="white"/>
<path d="M61.6876 17.7208C61.6876 12.8031 64.5116 8.82363 69.846 8.82363C77.063 8.82363 77.5337 15.4561 77.5337 15.4561H73.1407C73.1407 15.4561 72.9838 12.2207 69.846 12.2207C67.0533 12.2207 66.0806 14.6796 66.0806 17.7208C66.0806 20.7621 67.0533 23.2209 69.846 23.2209C72.9838 23.2209 73.1407 19.9856 73.1407 19.9856H77.5337C77.5337 19.9856 77.063 26.618 69.846 26.618C64.5116 26.618 61.6876 22.6386 61.6876 17.7208Z" fill="white"/>
<path d="M94 9.30893L88.195 26.618C86.9085 30.4681 85.214 32.4417 81.9193 32.4417C80.3504 32.4417 79.0952 31.9564 79.0952 31.9564V28.2357C79.0952 28.2357 80.0366 28.5593 81.1348 28.5593C82.7038 28.5593 83.3313 27.6857 83.9589 26.1327L77.3694 9.30893H82.0762L86.0613 20.4062L89.2932 9.30893H94Z" fill="white"/>
<path d="M22.1673 33.6905H21.113C21.1732 32.6578 21.979 32.3317 22.8827 32.3317C23.8241 32.3317 24.5771 32.6811 24.5771 33.7293V36.4859H23.5228V35.7094H23.4852C23.4852 35.7094 23.2442 36.6023 22.2426 36.6023C21.5272 36.6023 21 36.2607 21 35.5153C21 34.7621 21.6025 34.4204 22.2501 34.2496C22.9053 34.0788 23.5228 34.0244 23.5228 33.574C23.5228 33.2557 23.2969 33.0693 22.8827 33.0693C22.4309 33.0693 22.1823 33.2557 22.1673 33.6905ZM23.5228 34.4515C23.3496 34.6145 22.9957 34.6999 22.6944 34.7776C22.3555 34.863 22.0694 35.0416 22.0694 35.3988C22.0694 35.7094 22.2802 35.9035 22.6191 35.9035C23.3346 35.9035 23.5228 35.0494 23.5228 34.4515Z" fill="white"/>
<path d="M28.4529 32.4481V36.02C28.4529 37.1847 27.8504 38 26.4949 38C24.6875 38 24.6498 36.6023 24.6498 36.6023H25.7041C25.7041 36.6023 25.7418 37.1847 26.4949 37.1847C27.1651 37.1847 27.3986 36.7965 27.3986 36.0976V35.9035H27.3609C27.3609 35.9035 27.022 36.447 26.1936 36.447C25.064 36.447 24.4992 35.4376 24.4992 34.3893C24.4992 33.3411 25.064 32.3317 26.1936 32.3317C27.0597 32.3317 27.3986 32.9917 27.3986 32.9917H27.4362V32.4481H28.4529ZM27.4362 34.3893C27.4362 33.7371 27.135 33.147 26.4949 33.147C25.8547 33.147 25.5535 33.7371 25.5535 34.3893C25.5535 35.0416 25.8547 35.6317 26.4949 35.6317C27.135 35.6317 27.4362 35.0416 27.4362 34.3893Z" fill="white"/>
<path d="M28.3799 34.467C28.3799 33.2867 29.0502 32.3317 30.3379 32.3317C31.6257 32.3317 32.2206 33.2867 32.2206 34.467C32.2206 34.5602 32.2131 34.6999 32.2131 34.6999H29.4418C29.4869 35.3211 29.743 35.787 30.3756 35.787C31.0157 35.787 31.1287 35.1658 31.1287 35.1658H32.183C32.183 35.1658 31.9571 36.6023 30.3379 36.6023C29.02 36.6023 28.3799 35.6473 28.3799 34.467ZM30.3379 33.147C29.8183 33.147 29.5623 33.5042 29.4719 34.0011H31.1362C31.0684 33.5042 30.8576 33.147 30.3379 33.147Z" fill="white"/>
<path d="M32.1439 36.4859V32.4481H33.1605V33.1082H33.1982C33.1982 33.1082 33.5371 32.3317 34.4031 32.3317C35.4951 32.3317 35.7963 33.0693 35.7963 34.0011V36.4859H34.742V34.2341C34.742 33.5352 34.5537 33.2246 34.0642 33.2246C33.4994 33.2246 33.1982 33.574 33.1982 34.3893V36.4859H32.1439Z" fill="white"/>
<path d="M35.7222 34.467C35.7222 33.2867 36.3999 32.3317 37.6802 32.3317C39.4123 32.3317 39.5252 33.9235 39.5252 33.9235H38.4709C38.4709 33.9235 38.4333 33.147 37.6802 33.147C37.0099 33.147 36.7765 33.7371 36.7765 34.467C36.7765 35.1969 37.0099 35.787 37.6802 35.787C38.4333 35.787 38.4709 35.0105 38.4709 35.0105H39.5252C39.5252 35.0105 39.4123 36.6023 37.6802 36.6023C36.3999 36.6023 35.7222 35.6473 35.7222 34.467Z" fill="white"/>
<path d="M43.063 32.4481L41.6698 36.6023C41.361 37.5263 40.9543 38 40.1636 38C39.7871 38 39.4858 37.8835 39.4858 37.8835V36.9906C39.4858 36.9906 39.7117 37.0682 39.9753 37.0682C40.3519 37.0682 40.5025 36.8586 40.6531 36.4859L39.0716 32.4481H40.2012L41.1577 35.1115L41.9333 32.4481H43.063Z" fill="white"/>
</g>
</g>
</svg>
