<svg width="276" height="129" viewBox="0 0 276 129" fill="none" xmlns="http://www.w3.org/2000/svg">
<path d="M1.94563 64.9889H17.9615C17.9615 64.9889 17.9615 75.721 31.0115 75.721C39.9092 75.721 42.282 71.5474 42.282 67.97C42.282 54.853 3.132 64.9889 3.132 41.1398C3.132 30.4077 13.2161 21.4642 29.8252 21.4642C53.5524 21.4642 57.1115 35.1775 57.1115 41.1398H41.0956C41.0956 41.1398 41.0956 32.7926 29.8252 32.7926C23.3002 32.7926 19.7411 36.1314 19.7411 39.9473C19.7411 50.6794 58.891 42.9284 58.891 66.1814C58.891 78.1059 48.807 87.0494 31.0115 87.0494C6.69109 87.0494 1.94563 72.1437 1.94563 64.9889Z" fill="white"/>
<path d="M64.1741 106.725V23.2529H80.1899V31.6001H80.7831C80.7831 31.6001 86.1218 21.4642 99.7649 21.4642C117.56 21.4642 126.458 36.9662 126.458 54.2568C126.458 71.5474 117.56 87.0494 99.7649 87.0494C86.7149 87.0494 81.3763 78.7022 81.3763 78.7022H80.7831V106.725H64.1741ZM80.1899 54.2568C80.1899 65.4659 84.9354 74.5286 95.0195 74.5286C105.104 74.5286 109.849 65.4659 109.849 54.2568C109.849 43.0477 105.104 33.985 95.0195 33.985C84.9354 33.985 80.1899 43.0477 80.1899 54.2568Z" fill="white"/>
<path d="M148.443 23.2529V85.2607H131.834V23.2529H148.443ZM130.647 9.53965C130.647 4.29285 134.918 0 140.138 0C145.358 0 149.629 4.29285 149.629 9.53965C149.629 14.7865 145.358 19.0793 140.138 19.0793C134.918 19.0793 130.647 14.7865 130.647 9.53965Z" fill="white"/>
<path d="M153.832 54.2568C153.832 36.1314 164.51 21.4642 184.678 21.4642C211.964 21.4642 213.744 45.9096 213.744 45.9096H197.135C197.135 45.9096 196.542 33.985 184.678 33.985C174.119 33.985 170.442 43.0477 170.442 54.2568C170.442 65.4659 174.119 74.5286 184.678 74.5286C196.542 74.5286 197.135 62.604 197.135 62.604H213.744C213.744 62.604 211.964 87.0494 184.678 87.0494C164.51 87.0494 153.832 72.3821 153.832 54.2568Z" fill="white"/>
<path d="M276 23.2529L254.052 87.0494C249.188 101.24 242.782 108.514 230.325 108.514C224.393 108.514 219.648 106.725 219.648 106.725V93.0117C219.648 93.0117 223.207 94.2041 227.359 94.2041C233.291 94.2041 235.664 90.9845 238.036 85.2607L213.123 23.2529H230.918L245.985 64.1542L258.205 23.2529H276Z" fill="white"/>
<path d="M4.41327 113.116H0.427091C0.654872 109.31 3.70145 108.108 7.11818 108.108C10.6773 108.108 13.5245 109.396 13.5245 113.26V123.419H9.53836V120.557H9.39599C9.39599 120.557 8.48487 123.849 4.698 123.849C1.99309 123.849 0 122.589 0 119.842C0 117.066 2.27782 115.807 4.72647 115.177C7.20359 114.547 9.53836 114.347 9.53836 112.687C9.53836 111.514 8.68417 110.827 7.11818 110.827C5.40981 110.827 4.47021 111.514 4.41327 113.116ZM9.53836 115.921C8.88348 116.522 7.54527 116.837 6.40636 117.123C5.12509 117.438 4.04312 118.096 4.04312 119.413C4.04312 120.557 4.84036 121.273 6.12163 121.273C8.82654 121.273 9.53836 118.125 9.53836 115.921Z" fill="white"/>
<path d="M28.178 108.537V121.702C28.178 125.995 25.9001 129 20.7751 129C13.9416 129 13.7992 123.849 13.7992 123.849H17.7854C17.7854 123.849 17.9278 125.995 20.7751 125.995C23.3091 125.995 24.1918 124.564 24.1918 121.988V121.273H24.0494C24.0494 121.273 22.7682 123.276 19.6362 123.276C15.3652 123.276 13.2298 119.556 13.2298 115.692C13.2298 111.829 15.3652 108.108 19.6362 108.108C22.9105 108.108 24.1918 110.541 24.1918 110.541H24.3342V108.537H28.178ZM24.3342 115.692C24.3342 113.288 23.1952 111.113 20.7751 111.113C18.3549 111.113 17.216 113.288 17.216 115.692C17.216 118.096 18.3549 120.271 20.7751 120.271C23.1952 120.271 24.3342 118.096 24.3342 115.692Z" fill="white"/>
<path d="M27.9021 115.978C27.9021 111.628 30.4362 108.108 35.305 108.108C40.1739 108.108 42.4232 111.628 42.4232 115.978C42.4232 116.322 42.3947 116.837 42.3947 116.837H31.9168C32.0876 119.126 33.0557 120.844 35.4474 120.844C37.8676 120.844 38.2947 118.554 38.2947 118.554H42.2808C42.2808 118.554 41.4267 123.849 35.305 123.849C30.3223 123.849 27.9021 120.328 27.9021 115.978ZM35.305 111.113C33.3404 111.113 32.3723 112.43 32.0307 114.261H38.3231C38.0669 112.43 37.2697 111.113 35.305 111.113Z" fill="white"/>
<path d="M42.1329 123.419V108.537H45.9767V110.97H46.1191C46.1191 110.97 47.4004 108.108 50.6747 108.108C54.8033 108.108 55.9422 110.827 55.9422 114.261V123.419H51.956V115.12C51.956 112.544 51.2442 111.399 49.3935 111.399C47.258 111.399 46.1191 112.687 46.1191 115.692V123.419H42.1329Z" fill="white"/>
<path d="M55.6619 115.978C55.6619 111.628 58.2244 108.108 63.0648 108.108C69.6135 108.108 70.0406 113.975 70.0406 113.975H66.0544C66.0544 113.975 65.9121 111.113 63.0648 111.113C60.5307 111.113 59.6481 113.288 59.6481 115.978C59.6481 118.669 60.5307 120.844 63.0648 120.844C65.9121 120.844 66.0544 117.982 66.0544 117.982H70.0406C70.0406 117.982 69.6135 123.849 63.0648 123.849C58.2244 123.849 55.6619 120.328 55.6619 115.978Z" fill="white"/>
<path d="M83.4161 108.537L78.1487 123.849C76.9813 127.254 75.4438 129 72.4541 129C71.0305 129 69.8916 128.571 69.8916 128.571V125.28C69.8916 125.28 70.7458 125.566 71.7423 125.566C73.1659 125.566 73.7354 124.793 74.3048 123.419L68.3256 108.537H72.5965L76.2125 118.354L79.1452 108.537H83.4161Z" fill="white"/>
</svg>
