<svg width="420" height="420" viewBox="0 0 420 420" fill="none" xmlns="http://www.w3.org/2000/svg">
<rect width="420" height="420" fill="#2D87EF"/>
<path d="M138.024 192.32L132.536 193.552L133.152 192.768V226.256L132.536 225.472L138.024 226.592V229H123.744V226.592L129.176 225.472L128.56 226.256V192.768L129.288 193.608L123.744 192.6V190.192L138.024 189.912V192.32ZM144.496 229V226.592L149.536 225.472L148.864 226.312V202.232L149.536 203.072L144.496 202.008V199.6L152.336 199.208L152.952 204.696L152.336 204.472C154.202 202.568 156.144 201.168 158.16 200.272C160.213 199.376 162.154 198.928 163.984 198.928C166.448 198.928 168.482 199.693 170.088 201.224C171.73 202.717 172.533 205.051 172.496 208.224V226.312L171.936 225.528L176.864 226.592V229H163.816V226.592L168.688 225.528L168.016 226.368V209.176C168.016 206.861 167.493 205.163 166.448 204.08C165.402 202.997 164.002 202.456 162.248 202.456C160.866 202.456 159.354 202.829 157.712 203.576C156.106 204.323 154.52 205.48 152.952 207.048L153.344 206.152V226.368L152.784 225.584L157.544 226.592V229H144.496ZM181.613 229V226.592L186.653 225.472L185.981 226.312V202.232L186.653 203.072L181.613 202.008V199.6L189.453 199.208L190.069 204.696L189.453 204.472C191.32 202.568 193.261 201.168 195.277 200.272C197.33 199.376 199.272 198.928 201.101 198.928C203.565 198.928 205.6 199.693 207.205 201.224C208.848 202.717 209.65 205.051 209.613 208.224V226.312L209.053 225.528L213.981 226.592V229H200.933V226.592L205.805 225.528L205.133 226.368V209.176C205.133 206.861 204.61 205.163 203.565 204.08C202.52 202.997 201.12 202.456 199.365 202.456C197.984 202.456 196.472 202.829 194.829 203.576C193.224 204.323 191.637 205.48 190.069 207.048L190.461 206.152V226.368L189.901 225.584L194.661 226.592V229H181.613ZM233.067 198.928C237.173 198.928 240.384 200.216 242.699 202.792C245.051 205.368 246.227 209.008 246.227 213.712C246.227 216.885 245.648 219.667 244.491 222.056C243.371 224.408 241.765 226.237 239.675 227.544C237.584 228.851 235.064 229.504 232.115 229.504C228.083 229.504 224.928 228.253 222.651 225.752C220.373 223.213 219.235 219.573 219.235 214.832C219.235 211.547 219.776 208.728 220.859 206.376C221.979 203.987 223.565 202.157 225.619 200.888C227.709 199.581 230.192 198.928 233.067 198.928ZM232.843 202.232C229.968 202.232 227.765 203.315 226.235 205.48C224.704 207.645 223.939 210.688 223.939 214.608C223.939 218.453 224.667 221.347 226.123 223.288C227.579 225.229 229.669 226.2 232.395 226.2C234.373 226.2 236.035 225.715 237.379 224.744C238.76 223.736 239.787 222.317 240.459 220.488C241.168 218.659 241.523 216.475 241.523 213.936C241.523 210.128 240.757 207.235 239.227 205.256C237.733 203.24 235.605 202.232 232.843 202.232ZM269.925 189.912C272.427 189.912 274.723 190.304 276.813 191.088C278.941 191.835 280.789 192.992 282.357 194.56C283.925 196.091 285.157 198.051 286.053 200.44C286.949 202.792 287.397 205.592 287.397 208.84C287.397 213.245 286.595 216.941 284.989 219.928C283.421 222.915 281.256 225.173 278.493 226.704C275.731 228.235 272.576 229 269.029 229H253.237V226.592L258.837 225.416L258.053 226.424V192.6L258.837 193.664L253.237 192.6V190.192L263.765 189.912H269.925ZM269.197 225.584C270.915 225.584 272.557 225.304 274.125 224.744C275.693 224.184 277.112 223.288 278.381 222.056C279.651 220.787 280.64 219.107 281.349 217.016C282.096 214.888 282.469 212.293 282.469 209.232C282.469 206.208 282.115 203.688 281.405 201.672C280.696 199.619 279.744 197.995 278.549 196.8C277.355 195.568 276.011 194.691 274.517 194.168C273.024 193.608 271.456 193.328 269.813 193.328H261.805L262.645 192.488V226.424L261.805 225.584H269.197ZM308.45 198.928C312.557 198.928 315.767 200.216 318.082 202.792C320.434 205.368 321.61 209.008 321.61 213.712C321.61 216.885 321.031 219.667 319.874 222.056C318.754 224.408 317.149 226.237 315.058 227.544C312.967 228.851 310.447 229.504 307.498 229.504C303.466 229.504 300.311 228.253 298.034 225.752C295.757 223.213 294.618 219.573 294.618 214.832C294.618 211.547 295.159 208.728 296.242 206.376C297.362 203.987 298.949 202.157 301.002 200.888C303.093 199.581 305.575 198.928 308.45 198.928ZM308.226 202.232C305.351 202.232 303.149 203.315 301.618 205.48C300.087 207.645 299.322 210.688 299.322 214.608C299.322 218.453 300.05 221.347 301.506 223.288C302.962 225.229 305.053 226.2 307.778 226.2C309.757 226.2 311.418 225.715 312.762 224.744C314.143 223.736 315.17 222.317 315.842 220.488C316.551 218.659 316.906 216.475 316.906 213.936C316.906 210.128 316.141 207.235 314.61 205.256C313.117 203.24 310.989 202.232 308.226 202.232ZM354.941 204.528L354.325 204.64C356.154 202.736 358.096 201.317 360.149 200.384C362.202 199.413 364.125 198.928 365.917 198.928C368.194 198.928 370.098 199.693 371.629 201.224C373.197 202.717 373.981 205.032 373.981 208.168V226.312L373.421 225.528L378.349 226.592V229H365.357V226.592L370.117 225.528L369.501 226.368V209.176C369.501 206.861 368.997 205.163 367.989 204.08C367.018 202.997 365.749 202.456 364.181 202.456C362.837 202.456 361.344 202.848 359.701 203.632C358.096 204.416 356.509 205.611 354.941 207.216L355.333 206.152C355.37 206.488 355.389 206.805 355.389 207.104C355.426 207.403 355.445 207.701 355.445 208V226.312L354.885 225.528L359.533 226.592V229H346.877V226.592L351.637 225.528L350.965 226.368V209.176C350.965 206.861 350.461 205.163 349.453 204.08C348.482 202.997 347.213 202.456 345.645 202.456C344.301 202.456 342.826 202.829 341.221 203.576C339.616 204.323 338.029 205.48 336.461 207.048L336.853 206.208V226.368L336.293 225.584L340.941 226.592V229H328.005V226.592L333.045 225.472L332.373 226.312V202.232L333.045 203.072L328.005 202.008V199.6L335.845 199.208L336.461 204.696L335.845 204.472C337.674 202.568 339.597 201.168 341.613 200.272C343.666 199.376 345.608 198.928 347.437 198.928C349.154 198.928 350.685 199.395 352.029 200.328C353.373 201.224 354.344 202.624 354.941 204.528Z" fill="white"/>
<g clip-path="url(#clip0_432_220)">
<path fill-rule="evenodd" clip-rule="evenodd" d="M76.2767 208.301V214.3H76.1325V215.011H48.1975V206.285H61.9756L47.0889 191.399L53.259 185.229L67.5508 199.52V186.365H76.2767V208.246L76.3042 208.274L76.2767 208.301Z" fill="white"/>
<mask id="mask0_432_220" style="mask-type:alpha" maskUnits="userSpaceOnUse" x="47" y="185" width="30" height="31">
<path fill-rule="evenodd" clip-rule="evenodd" d="M76.2767 208.301V214.3H76.1325V215.011H48.1974V206.285H61.9756L47.0889 191.399L53.259 185.229L67.5508 199.52V186.365H76.2767V208.246L76.3042 208.274L76.2767 208.301Z" fill="#2B7AF5"/>
</mask>
<g mask="url(#mask0_432_220)">
<g opacity="0.26" filter="url(#filter0_f_432_220)">
<path d="M65.3447 203.269H80.7343V222.988H65.3447V203.269Z" fill="black"/>
</g>
</g>
<path fill-rule="evenodd" clip-rule="evenodd" d="M76.23 220.52L92.7123 237.002L98.8824 230.832L83.092 215.041H95.4378V206.315H67.5029V215.041H67.5041L67.5041 234.405H76.23V220.52Z" fill="#010519"/>
</g>
<defs>
<filter id="filter0_f_432_220" x="58.8724" y="196.796" width="28.3343" height="32.6644" filterUnits="userSpaceOnUse" color-interpolation-filters="sRGB">
<feFlood flood-opacity="0" result="BackgroundImageFix"/>
<feBlend mode="normal" in="SourceGraphic" in2="BackgroundImageFix" result="shape"/>
<feGaussianBlur stdDeviation="3.23618" result="effect1_foregroundBlur_432_220"/>
</filter>
<clipPath id="clip0_432_220">
<rect width="52" height="52" fill="white" transform="translate(47 185)"/>
</clipPath>
</defs>
</svg>
