<svg width="30" height="23" viewBox="0 0 30 23" fill="none" xmlns="http://www.w3.org/2000/svg">
<path d="M27.0892 0.45439C23.2948 1.93343 7.02501 8.27595 2.52967 10.0046C-0.485108 11.1118 1.27978 12.15 1.27978 12.15C1.27978 12.15 3.85327 12.9804 6.05946 13.6032C8.26534 14.2261 9.44183 13.5342 9.44183 13.5342L19.8098 6.95973C23.4863 4.60679 22.6041 6.54441 21.7215 7.37506C19.8098 9.17452 16.6479 12.0116 14.0007 14.2954C12.8242 15.2642 13.4123 16.0946 13.9273 16.5099C15.839 18.0325 21.06 21.1467 21.3539 21.3543C22.9072 22.3892 25.9627 23.879 26.4274 20.7314L28.2657 9.86644C28.8541 6.19873 29.4422 2.80762 29.5156 1.83881C29.7364 -0.514417 27.0892 0.45439 27.0892 0.45439Z" fill="#FF7840"/>
</svg>
