<svg width="26" height="29" viewBox="0 0 26 29" fill="none" xmlns="http://www.w3.org/2000/svg">
<path d="M25.1905 7.63492C24.2885 7.63493 23.3954 7.45729 22.562 7.11213C21.7287 6.76697 20.9716 6.26105 20.3338 5.62327C19.696 4.98549 19.19 4.22832 18.8449 3.39502C18.4997 2.56171 18.3221 1.66857 18.3221 0.766602H13.415V19.9816C13.4141 20.8577 13.1375 21.7112 12.6243 22.4213C12.1112 23.1313 11.3876 23.6619 10.5561 23.9377C9.72463 24.2136 8.82741 24.2207 7.99163 23.9581C7.15584 23.6956 6.4239 23.1766 5.89953 22.4748C5.37516 21.773 5.08497 20.924 5.07009 20.0481C5.0552 19.1722 5.31638 18.3138 5.8166 17.5946C6.31682 16.8754 7.03071 16.3318 7.85709 16.041C8.68346 15.7502 9.58041 15.7269 10.4208 15.9743V11.2043C8.63482 10.9635 6.81787 11.2733 5.21258 12.0923C3.60729 12.9113 2.29005 14.2005 1.43677 15.7878C0.583486 17.3752 0.234768 19.185 0.43718 20.9758C0.639592 22.7665 1.3835 24.4529 2.56957 25.8097C3.75563 27.1665 5.32741 28.1292 7.07501 28.5692C8.82261 29.0092 10.6629 28.9056 12.35 28.2722C14.0372 27.6388 15.491 26.5058 16.5172 25.0244C17.5435 23.543 18.0934 21.7838 18.0935 19.9816L18.2359 10.269C20.252 11.7491 22.6888 12.5455 25.1899 12.5418L25.1905 7.63492Z" fill="#F6F6F6"/>
</svg>
